<svg width="41" height="40" viewBox="0 0 41 40" fill="none" xmlns="http://www.w3.org/2000/svg">
<path d="M10.0618 13.3334C10.0618 9.65008 13.0451 6.66675 16.7285 6.66675C20.4118 6.66675 23.3951 9.65008 23.3951 13.3334C23.3951 17.0167 20.4118 20.0001 16.7285 20.0001C13.0451 20.0001 10.0618 17.0167 10.0618 13.3334ZM20.0618 30.3334C20.0618 28.7334 20.8951 27.2334 22.0618 26.2334V25.8334C22.0618 25.1834 22.1785 24.5667 22.3618 23.9667C20.6451 23.5667 18.7451 23.3334 16.7285 23.3334C9.36181 23.3334 3.39514 26.3167 3.39514 30.0001V33.3334H20.0618V30.3334ZM36.7285 30.5001V36.3334C36.7285 37.3334 35.7285 38.3334 34.5618 38.3334H25.3951C24.3951 38.3334 23.3951 37.3334 23.3951 36.1667V30.3334C23.3951 29.3334 24.3951 28.3334 25.3951 28.3334V25.8334C25.3951 23.5001 27.7285 21.6667 30.0618 21.6667C32.3951 21.6667 34.7285 23.5001 34.7285 25.8334V28.3334C35.7285 28.3334 36.7285 29.3334 36.7285 30.5001ZM32.5618 25.8334C32.5618 24.5001 31.3951 23.6667 30.0618 23.6667C28.7285 23.6667 27.5618 24.5001 27.5618 25.8334V28.3334H32.5618V25.8334Z" fill="#8A9F80"/>
</svg>
