<svg width="40" height="40" viewBox="0 0 40 40" fill="none" xmlns="http://www.w3.org/2000/svg">
<path d="M34.9999 20.3667C34.9999 11.2167 27.8999 5 19.9999 5C12.1833 5 4.99992 11.0833 4.99992 20.4667C3.99992 21.0333 3.33325 22.1 3.33325 23.3333V26.6667C3.33325 28.5 4.83325 30 6.66659 30H8.33325V19.8333C8.33325 13.3833 13.5499 8.16667 19.9999 8.16667C26.4499 8.16667 31.6666 13.3833 31.6666 19.8333V31.6667H18.3333V35H31.6666C33.4999 35 34.9999 33.5 34.9999 31.6667V29.6333C35.9832 29.1167 36.6666 28.1 36.6666 26.9V23.0667C36.6666 21.9 35.9832 20.8833 34.9999 20.3667Z" fill="#8A9F80"/>
<path d="M14.9999 23.3333C15.9204 23.3333 16.6666 22.5871 16.6666 21.6667C16.6666 20.7462 15.9204 20 14.9999 20C14.0794 20 13.3333 20.7462 13.3333 21.6667C13.3333 22.5871 14.0794 23.3333 14.9999 23.3333Z" fill="#8A9F80"/>
<path d="M24.9999 23.3333C25.9204 23.3333 26.6666 22.5871 26.6666 21.6667C26.6666 20.7462 25.9204 20 24.9999 20C24.0794 20 23.3333 20.7462 23.3333 21.6667C23.3333 22.5871 24.0794 23.3333 24.9999 23.3333Z" fill="#8A9F80"/>
<path d="M29.9998 18.3833C29.6024 16.0402 28.3888 13.9133 26.5739 12.379C24.7589 10.8447 22.4597 10.002 20.0831 10C15.0331 10 9.59979 14.1833 10.0331 20.75C12.0883 19.909 13.9035 18.5725 15.3168 16.8596C16.7301 15.1468 17.6977 13.1109 18.1331 10.9333C20.3165 15.3167 24.7998 18.3333 29.9998 18.3833Z" fill="#8A9F80"/>
</svg>
