<svg width="31" height="40" viewBox="0 0 31 40" fill="none" xmlns="http://www.w3.org/2000/svg">
<g clip-path="url(#clip0_434_3760)">
<path d="M13.7016 0.429688C14.5609 -0.140625 15.6859 -0.140625 16.5453 0.429688L17.9359 1.34375C18.4047 1.64844 18.9516 1.79688 19.5062 1.76562L21.1703 1.66406C22.2015 1.60156 23.1703 2.16406 23.6312 3.08594L24.3812 4.57812C24.6312 5.07812 25.0375 5.47656 25.5297 5.72656L27.0375 6.48438C27.9594 6.94531 28.5219 7.91406 28.4594 8.94531L28.3578 10.6094C28.3265 11.1641 28.475 11.7188 28.7797 12.1797L29.7016 13.5703C30.2719 14.4297 30.2719 15.5547 29.7016 16.4141L28.7797 17.8125C28.475 18.2812 28.3265 18.8281 28.3578 19.3828L28.4594 21.0469C28.5219 22.0781 27.9594 23.0469 27.0375 23.5078L25.5453 24.2578C25.0453 24.5078 24.6469 24.9141 24.3969 25.4063L23.6391 26.9141C23.1781 27.8359 22.2094 28.3984 21.1781 28.3359L19.5141 28.2344C18.9594 28.2031 18.4047 28.3516 17.9437 28.6562L16.5531 29.5781C15.6937 30.1484 14.5687 30.1484 13.7094 29.5781L12.3109 28.6562C11.8422 28.3516 11.2953 28.2031 10.7406 28.2344L9.07655 28.3359C8.0453 28.3984 7.07655 27.8359 6.61561 26.9141L5.86561 25.4219C5.61561 24.9219 5.20936 24.5234 4.71718 24.2734L3.20936 23.5156C2.28749 23.0547 1.72499 22.0859 1.78749 21.0547L1.88905 19.3906C1.9203 18.8359 1.77186 18.2813 1.46718 17.8203L0.553113 16.4219C-0.0171993 15.5625 -0.0171993 14.4375 0.553113 13.5781L1.46718 12.1875C1.77186 11.7188 1.9203 11.1719 1.88905 10.6172L1.78749 8.95312C1.72499 7.92188 2.28749 6.95312 3.20936 6.49219L4.70155 5.74219C5.20155 5.48438 5.6078 5.07812 5.8578 4.57812L6.6078 3.08594C7.06874 2.16406 8.03749 1.60156 9.06874 1.66406L10.7328 1.76562C11.2875 1.79688 11.8422 1.64844 12.3031 1.34375L13.7016 0.429688ZM21.3734 15C21.3734 13.3424 20.7149 11.7527 19.5428 10.5806C18.3707 9.40848 16.781 8.75 15.1234 8.75C13.4658 8.75 11.8761 9.40848 10.704 10.5806C9.53191 11.7527 8.87343 13.3424 8.87343 15C8.87343 16.6576 9.53191 18.2473 10.704 19.4194C11.8761 20.5915 13.4658 21.25 15.1234 21.25C16.781 21.25 18.3707 20.5915 19.5428 19.4194C20.7149 18.2473 21.3734 16.6576 21.3734 15ZM0.224988 34.5156L3.59218 26.5078C3.6078 26.5156 3.61561 26.5234 3.62343 26.5391L4.37343 28.0312C5.28749 29.8438 7.18593 30.9453 9.21718 30.8281L10.8812 30.7266C10.8969 30.7266 10.9203 30.7266 10.9359 30.7422L12.3266 31.6641C12.725 31.9219 13.1469 32.125 13.5844 32.2656L10.6469 39.2422C10.4672 39.6719 10.0687 39.9609 9.6078 40C9.14686 40.0391 8.70155 39.8281 8.45155 39.4375L5.93593 35.5859L1.55311 36.2344C1.1078 36.2969 0.662488 36.1172 0.381238 35.7656C0.0999882 35.4141 0.0453007 34.9297 0.217176 34.5156H0.224988ZM19.6 39.2344L16.6625 32.2656C17.1 32.125 17.5219 31.9297 17.9203 31.6641L19.3109 30.7422C19.3266 30.7344 19.3422 30.7266 19.3656 30.7266L21.0297 30.8281C23.0609 30.9453 24.9594 29.8438 25.8734 28.0312L26.6234 26.5391C26.6312 26.5234 26.6391 26.5156 26.6547 26.5078L30.0297 34.5156C30.2015 34.9297 30.1391 35.4062 29.8656 35.7656C29.5922 36.125 29.1391 36.3047 28.6937 36.2344L24.3109 35.5859L21.7953 39.4297C21.5453 39.8203 21.1 40.0312 20.6391 39.9922C20.1781 39.9531 19.7797 39.6562 19.6 39.2344Z" fill="#8A9F80"/>
</g>
<defs>
<clipPath id="clip0_434_3760">
<rect width="30" height="40" fill="white" transform="translate(0.123413)"/>
</clipPath>
</defs>
</svg>
