<svg width="41" height="40" viewBox="0 0 41 40" fill="none" xmlns="http://www.w3.org/2000/svg">
<path d="M34.385 6.44998C33.6976 5.01371 32.6131 3.80446 31.2598 2.96535C29.9065 2.12624 28.3412 1.69241 26.749 1.71521C25.1569 1.738 23.6046 2.21647 22.2759 3.09397C20.9472 3.97148 19.8978 5.21128 19.2517 6.66664H11.8517C10.5256 6.66664 9.25386 7.19343 8.31618 8.13111C7.3785 9.06879 6.85171 10.3406 6.85171 11.6666V18.3333C6.85171 18.7753 7.02731 19.1993 7.33987 19.5118C7.65243 19.8244 8.07635 20 8.51838 20C8.96041 20 9.38433 19.8244 9.69689 19.5118C10.0095 19.1993 10.185 18.7753 10.185 18.3333V11.6666C10.185 11.2246 10.3606 10.8007 10.6732 10.4881C10.9858 10.1756 11.4097 9.99998 11.8517 9.99998H16.485C15.6554 10.9127 15.1924 12.0999 15.185 13.3333C15.185 14.6594 15.7118 15.9312 16.6495 16.8688C17.5872 17.8065 18.859 18.3333 20.185 18.3333H32.4017C33.853 18.3438 35.2604 17.8365 36.3712 16.9025C37.4821 15.9686 38.2235 14.6692 38.4624 13.2377C38.7014 11.8062 38.4221 10.3364 37.6747 9.09234C36.9274 7.84826 35.761 6.91139 34.385 6.44998ZM32.4017 15H20.185C19.743 15 19.3191 14.8244 19.0065 14.5118C18.694 14.1993 18.5184 13.7753 18.5184 13.3333C18.5184 12.8913 18.694 12.4674 19.0065 12.1548C19.3191 11.8422 19.743 11.6666 20.185 11.6666C20.6271 11.6666 21.051 11.491 21.3636 11.1785C21.6761 10.8659 21.8517 10.442 21.8517 9.99998C21.8383 8.81057 22.2493 7.65533 23.011 6.7417C23.7726 5.82808 24.8351 5.21593 26.0075 5.01517C27.1799 4.81441 28.3855 5.03821 29.4078 5.64636C30.43 6.25452 31.202 7.20719 31.585 8.33331C31.6803 8.61971 31.8516 8.87486 32.0805 9.07153C32.3095 9.2682 32.5876 9.399 32.885 9.44998C33.5368 9.55796 34.1279 9.89697 34.5503 10.405C34.9726 10.913 35.1979 11.5561 35.185 12.2166C35.185 12.5822 35.1131 12.9441 34.9732 13.2818C34.8333 13.6195 34.6283 13.9263 34.3698 14.1848C34.1114 14.4432 33.8045 14.6482 33.4669 14.7881C33.1292 14.928 32.7672 15 32.4017 15ZM31.8517 21.6666C31.4097 21.6666 30.9858 21.8422 30.6732 22.1548C30.3606 22.4674 30.185 22.8913 30.185 23.3333V28.3333C30.185 28.7753 30.0095 29.1993 29.6969 29.5118C29.3843 29.8244 28.9604 30 28.5184 30H24.7517C24.4296 29.1752 23.9318 28.4304 23.2928 27.8173C22.6539 27.2043 21.8891 26.7377 21.0517 26.45C20.2965 24.8472 19.05 23.5268 17.4933 22.6806C15.9366 21.8344 14.1506 21.5064 12.3948 21.7442C10.639 21.982 9.00473 22.7733 7.72922 24.0031C6.45371 25.233 5.60339 26.8373 5.30171 28.5833C4.17302 28.9543 3.21332 29.715 2.59455 30.7293C1.97578 31.7435 1.7384 32.945 1.92494 34.1183C2.11147 35.2917 2.70973 36.3603 3.61252 37.1326C4.51531 37.905 5.66363 38.3306 6.85171 38.3333H19.0684C20.4954 38.3333 21.8772 37.833 22.9735 36.9195C24.0698 36.0059 24.8111 34.7369 25.0684 33.3333H28.5184C29.8445 33.3333 31.1162 32.8065 32.0539 31.8688C32.9916 30.9312 33.5184 29.6594 33.5184 28.3333V23.3333C33.5184 22.8913 33.3428 22.4674 33.0302 22.1548C32.7177 21.8422 32.2937 21.6666 31.8517 21.6666ZM19.0684 35H6.85171C6.40969 35 5.98576 34.8244 5.6732 34.5118C5.36064 34.1993 5.18505 33.7753 5.18505 33.3333C5.18505 32.8913 5.36064 32.4674 5.6732 32.1548C5.98576 31.8422 6.40969 31.6666 6.85171 31.6666C7.29374 31.6666 7.71767 31.491 8.03023 31.1785C8.34279 30.8659 8.51838 30.442 8.51838 30C8.50493 28.8106 8.91595 27.6553 9.67764 26.7417C10.4393 25.8281 11.5018 25.2159 12.6742 25.0152C13.8466 24.8144 15.0522 25.0382 16.0744 25.6464C17.0967 26.2545 17.8687 27.2072 18.2517 28.3333C18.347 28.6197 18.5182 28.8749 18.7472 29.0715C18.9762 29.2682 19.2542 29.399 19.5517 29.45C20.2035 29.558 20.7946 29.897 21.2169 30.405C21.6393 30.913 21.8646 31.5561 21.8517 32.2166C21.8517 32.5822 21.7797 32.9441 21.6398 33.2818C21.5 33.6195 21.295 33.9263 21.0365 34.1848C20.778 34.4432 20.4712 34.6482 20.1335 34.7881C19.7958 34.928 19.4339 35 19.0684 35Z" fill="#8A9F80"/>
</svg>
